Coordinates
version=1
nRows=5
nColumns=40
inDegrees=yes

Units are S.I. units (second, meters, Newtons, ...)
Angles are in degrees.

endheader
time	pelvis_tilt	pelvis_list	pelvis_rotation	pelvis_tx	pelvis_ty	pelvis_tz	hip_flexion_r	hip_adduction_r	hip_rotation_r	knee_angle_r	knee_angle_r_beta	ankle_angle_r	subtalar_angle_r	mtp_angle_r	hip_flexion_l	hip_adduction_l	hip_rotation_l	knee_angle_l	knee_angle_l_beta	ankle_angle_l	subtalar_angle_l	mtp_angle_l	lumbar_extension	lumbar_bending	lumbar_rotation	arm_flex_r	arm_add_r	arm_rot_r	elbow_flex_r	pro_sup_r	wrist_flex_r	wrist_dev_r	arm_flex_l	arm_add_l	arm_rot_l	elbow_flex_l	pro_sup_l	wrist_flex_l	wrist_dev_l
     43.74250000	     -6.30173380	     -6.42733184	      2.19258363	      1.05623733	      0.92285473	      0.46391427	     21.80711490	      3.08887458	    -14.29434725	     17.23113779	     17.23113779	      3.98373409	     -1.52785874	     -1.43088741	     11.73560094	    -13.36740275	     -4.68632072	     42.58397610	     42.58397610	      9.61964214	    -15.10182289	    -10.41447912	    -11.24814381	      5.59995107	      1.99888804	     -4.74358650	    -14.16325859	      3.43009158	     34.29689856	     45.21735973	      0.00000000	      0.00000000	     15.29496375	    -14.40838607	     -5.33243342	     90.91059129	     47.40358292	      0.00000000	      0.00000000
     43.75485714	     -6.40716929	     -6.38484112	      2.20489500	      1.05605430	      0.92350215	      0.46624982	     21.23615130	      3.16155154	    -14.81411964	     16.93004466	     16.93004466	      4.41230753	     -0.46324115	     -1.75290871	     13.76151179	    -13.52469794	     -3.62995872	     46.31301574	     46.31301574	      7.71935315	    -16.58812435	     -8.96625772	    -11.27954025	      5.46805376	      1.90199761	     -3.75874060	    -14.94328286	      4.28471410	     37.85668252	     45.06059124	      0.00000000	      0.00000000	     14.41923578	    -13.80935009	     -5.91093488	     88.42544881	     47.44270636	      0.00000000	      0.00000000
     43.76721429	     -6.47824555	     -6.47259575	      2.19490071	      1.05573568	      0.92404137	      0.46866595	     20.61852430	      3.46658099	    -14.98210804	     16.53350051	     16.53350051	      4.70760696	     -0.03616367	     -1.86101978	     15.81565381	    -13.87620253	     -2.68529529	     49.96278996	     49.96278996	      5.80523642	    -17.44820791	     -8.08758583	    -11.39604229	      5.41416939	      1.94673660	     -1.90150685	    -15.33347160	      4.24333407	     39.12447926	     45.03187448	      0.00000000	      0.00000000	     13.25537287	    -13.65833028	     -5.60336380	     86.95962746	     47.39883832	      0.00000000	      0.00000000
     43.77957143	     -6.51906312	     -6.27597243	      2.09278441	      1.05529388	      0.92467820	      0.47059555	     20.05938479	      3.36711568	    -15.36355655	     16.36708140	     16.36708140	      5.02918076	      0.98548889	     -2.38183145	     17.92946817	    -13.64584546	     -1.61669897	     53.76125606	     53.76125606	      5.83024126	    -17.63574601	     -2.06534240	    -11.54054679	      5.14102751	      2.35073204	     -0.93794844	    -16.33987097	      5.21440465	     42.78702345	     44.88143444	      0.00000000	      0.00000000	     12.91735935	    -12.83793348	     -5.77592898	     83.51389405	     47.39439474	      0.00000000	      0.00000000
     43.79192857	     -6.50649392	     -6.15873588	      1.98458125	      1.05480152	      0.92528583	      0.47254977	     19.46229338	      3.42459101	    -15.39445192	     16.20266106	     16.20266106	      5.36883424	      1.40448468	     -2.57246265	     19.82577535	    -13.58821922	     -0.80848062	     56.96060366	     56.96060366	      4.76806534	    -18.05284453	      0.33902696	    -11.75459383	      4.90072502	      2.15933667	      1.10995851	    -16.76077704	      5.25690601	     44.78565309	     44.83581241	      0.00000000	      0.00000000	     11.86890176	    -12.80887691	     -5.47046286	     81.05716127	     47.34590232	      0.00000000	      0.00000000
